# AST/ASF file generated using VICON BodyLanguage
# -----------------------------------------------
:version 1.10
:name VICON
:units
  mass 1.0
  length 0.45
  angle deg
:documentation
   .ast/.asf automatically generated from VICON data using
   VICON BodyBuilder and BodyLanguage model FoxedUp or BRILLIANT.MOD
:root
   order TX TY TZ RX RY RZ
   axis XYZ
   position 0 0 0  
   orientation 0 0 0 
:bonedata
  begin
     id 1 
     name lhipjoint
     direction 0.710188 -0.616876 0.339259 
     length 2.5669 
     axis 0 0 0  XYZ
  end
  begin
     id 2 
     name lfemur
     direction 0.34202 -0.939693 0  
     length 7.12796  
     axis 0 0 20  XYZ
    dof rx ry rz
    limits (-160.0 20.0)
           (-70.0 70.0)
           (-60.0 70.0)
  end
  begin
     id 3 
     name ltibia
     direction 0.34202 -0.939693 0   
     length 7.58108   
     axis 0 0 20   XYZ
    dof rx
    limits (-10.0 170.0)
  end
  begin
     id 4 
     name lfoot
     direction 0.0669471 -0.183936 0.980656   
     length 2.17365   
     axis -90 7.62852e-016 20   XYZ
    dof rx rz
    limits (-45.0 90.0)
           (-70.0 20.0)
  end
  begin
     id 5 
     name ltoes
     direction 1.53508e-011 -4.21705e-011 1   
     length 1.09427   
     axis -90 7.62852e-016 20   XYZ
    dof rx
    limits (-90.0 20.0)
  end
  begin
     id 6 
     name rhipjoint
     direction -0.700191 -0.625589 0.34405   
     length 2.53115  
     axis 0 0 0  XYZ 
  end
  begin
     id 7 
     name rfemur
     direction -0.34202 -0.939693 0   
     length 7.33006   
     axis 0 0 -20   XYZ
    dof rx ry rz
    limits (-160.0 20.0)
           (-70.0 70.0)
           (-70.0 60.0)
  end
  begin
     id 8 
     name rtibia
     direction -0.34202 -0.939693 0   
     length 7.64926   
     axis 0 0 -20   XYZ
    dof rx
    limits (-10.0 170.0)
 end
 begin
     id 9 
     name rfoot
     direction -0.0688927 -0.189281 0.979503   
     length 2.20493  
     axis -90 -7.62852e-016 -20   XYZ
    dof rx rz
    limits (-45.0 90.0)
           (-20.0 70.0)
  end
  begin
     id 10 
     name rtoes
     direction -1.53567e-011 -4.21933e-011 1   
     length 1.10919   
     axis -90 -7.62852e-016 -20   XYZ
    dof rx
    limits (-90.0 20.0)
  end
  begin
     id 11 
     name lowerback
     direction -0.0167868 0.989873 -0.140959   
     length 2.14596   
     axis 0 0 0   XYZ
    dof rx ry rz
    limits (-20.0 45.0)
           (-30.0 30.0)
           (-30.0 30.0)
  end
  begin
     id 12 
     name upperback
     direction 0.0129109 0.998033 0.0613525   
     length 2.10457   
     axis 0 0 0   XYZ
    dof rx ry rz
    limits (-20.0 45.0)
           (-30.0 30.0)
           (-30.0 30.0)
  end
  begin
     id 13 
     name thorax
     direction 0.0177047 0.991119 0.131797   
     length 2.17652   
     axis 0 0 0   XYZ
    dof rx ry rz
    limits (-20.0 45.0)
           (-30.0 30.0)
           (-30.0 30.0)
  end
  begin
     id 14 
     name lowerneck
     direction -0.0336893 0.997548 0.0613464   
     length 1.8912   
     axis 0 0 0   XYZ
    dof rx ry rz
    limits (-20.0 45.0)
           (-30.0 30.0)
           (-30.0 30.0)
  end
  begin
     id 15 
     name upperneck
     direction 0.0435909 0.997179 -0.0611028   
     length 1.8829   
     axis 0 0 0   XYZ
    dof rx ry rz
    limits (-20.0 45.0)
           (-30.0 30.0)
           (-30.0 30.0)
  end
  begin
     id 16
     name head
     direction 0.0175076 0.999444 -0.0283782  
     length 1.93197  
     axis 0 0 0   XYZ
    dof rx ry rz
    limits (-20.0 45.0)
           (-30.0 30.0)
           (-30.0 30.0)
  end
  begin
     id 17 
     name lclavicle
     direction 0.919164 0.389875 0.0559876  
     length 3.60004  
     axis 0 0 0   XYZ
    dof ry rz
    limits (-20.0 10.0)
           (0.0 20.0)
  end
  begin
     id 18 
     name lhumerus
     direction 1 -4.48958e-011 6.89191e-027   
     length 5.43301   
     axis 180 -30 -90   XYZ
    dof rx ry rz
    limits (-60.0 90.0)
           (-90.0 90.0)
           (-90.0 90.0)
  end
  begin
     id 19
     name lradius
     direction 1 -4.4897e-011 3.24727e-027   
     length 3.15936   
     axis 180 -30 -90   XYZ
    dof rx
    limits (-10.0 170.0)
  end
  begin
     id 20
     name lwrist
     direction 1 -4.4897e-011 9.00228e-027   
     length 1.57968   
     axis -6.29373e-015 90 90   XYZ
    dof ry
    limits (-180.0 0.0)
 end
  begin
     id 21 
     name lhand
     direction 1 -4.48968e-011 1.80042e-026   
     length 0.712827   
     axis -1.14882e-014 90 90   XYZ
    dof rx rz
    limits (-90.0 90.0)
           (-45.0 45.0)
  end
  begin
     id 22 
     name lfingers
     direction 1 -4.49019e-011 3.60267e-026   
     length 0.574699   
     axis -2.29769e-014 90 90   XYZ
    dof rx
    limits (0.0 90.0)
  end
  begin
     id 23
     name lthumb
     direction 0.707107 -6.3498e-011 0.707107   
     length 0.825157   
     axis -90 45 5.37419e-014   XYZ
    dof rx rz
    limits (-45.0 45.0)
           (-45.0 45.0)
  end
  begin
     id 24 
     name rclavicle
     direction -0.890334 0.455305 -0.00132111   
     length 3.51494  
     axis 0 0 0   XYZ 
    dof ry rz
    limits (-10.0 20.0)
           (-20.0 0.0)
  end
  begin
     id 25 
     name rhumerus
     direction -1 -4.48967e-011 5.07175e-028  
     length 5.34194   
     axis 180 30 90   XYZ
    dof rx ry rz
    limits (-90.0 60.0)
           (-90.0 90.0)
           (-90.0 90.0)
  end
  begin
     id 26 
     name rradius
     direction -1 -4.48955e-011 3.30467e-027   
     length 3.19351   
     axis 180 30 90   XYZ
    dof rx
    limits (-10.0 170.0)
  end
  begin
     id 27 
     name rwrist
     direction -1 -4.48968e-011 9.00208e-027   
     length 1.59676   
     axis -6.29373e-015 -90 -90   XYZ
    dof ry
    limits (-180.0 0.0)
  end
  begin
     id 28
     name rhand
     direction -1 -4.49e-011 1.80099e-026   
     length 0.743862   
     axis -1.14882e-014 -90 -90   XYZ
    dof rx rz
    limits (-90.0 90.0)
           (-45.0 45.0)
  end
  begin
     id 29
     name rfingers
     direction -1 -4.49009e-011 3.6023e-026   
     length 0.599721   
     axis -2.29769e-014 -90 -90   XYZ
    dof rx
    limits (0.0 90.0)
  end
  begin
     id 30
     name rthumb
     direction -0.707107 -6.35025e-011 0.707107   
     length 0.861083   
     axis -90 -45 -5.37419e-014   XYZ
    dof rx rz
    limits (-45.0 45.0)
           (-45.0 45.0)
  end
:hierarchy
  begin
    root lhipjoint rhipjoint lowerback
    lhipjoint lfemur
    lfemur ltibia
    ltibia lfoot
    lfoot ltoes
    rhipjoint rfemur
    rfemur rtibia
    rtibia rfoot
    rfoot rtoes
    lowerback upperback
    upperback thorax
    thorax lowerneck lclavicle rclavicle
    lowerneck upperneck
    upperneck head
    lclavicle lhumerus
    lhumerus lradius
    lradius lwrist
    lwrist lhand lthumb
    lhand lfingers
    rclavicle rhumerus
    rhumerus rradius
    rradius rwrist
    rwrist rhand rthumb
    rhand rfingers
  end

#!OML:ASF H:\Martial Arts Walks\Project 1\Capture day 1\Session 1\male.ASF
:FULLY-SPECIFIED
:DEGREES
308
root -1.93667 14.7168 -17.0001 12.678 14.5284 0.622575
lowerback 17.1472 0.759883 -3.76883
upperback -1.67517 0.460191 2.08697
thorax -11.5852 0.544245 4.33229
lowerneck -1.71716 -6.04264 -8.24674
upperneck -4.30437 -7.79509 8.29661
head -0.369001 -3.86052 4.11368
rclavicle 1.37161e-014 -1.19271e-015
rhumerus 23.3706 5.93442 -58.6685
rradius 34.2613
rwrist 1.42618
rhand -2.94946 -27.9116
rfingers 7.12502
rthumb 22.7625 -56.5887
lclavicle 1.37161e-014 -1.19271e-015
lhumerus 8.61703 -46.5706 78.8884
lradius 79.0306
lwrist 30.1834
lhand 2.03538 45.4274
lfingers 7.12502
lthumb 27.5384 73.4332
rfemur -62.48 -25.9864 29.5977
rtibia 77.0294
rfoot -20.5291 -19.3729
rtoes -4.72639
lfemur -11.1446 3.14447 -8.07226
ltibia 73.295
lfoot -0.416804 6.68437
ltoes -11.8516
309
root -1.94519 14.7244 -16.8833 12.3834 14.0966 0.0392219
lowerback 17.4155 0.815152 -3.47236
upperback -1.57191 0.611759 2.28177
thorax -11.6385 0.604078 4.3395
lowerneck -1.81874 -5.90976 -8.17259
upperneck -4.35115 -7.60804 8.30177
head -0.385731 -3.76599 4.10368
rclavicle 9.54166e-015 2.70347e-014
rhumerus 24.2437 6.02301 -59.0712
rradius 34.5564
rwrist 1.2077
rhand -4.865 -28.147
rfingers 7.12502
rthumb 20.9231 -57.0386
lclavicle 9.54166e-015 2.70347e-014
lhumerus 13.3544 -48.4093 76.5047
lradius 81.578
lwrist 28.3849
lhand 2.45492 43.3923
lfingers 7.12502
lthumb 27.9396 71.3335
rfemur -61.5897 -25.6516 30.018
rtibia 76.8492
rfoot -20.9282 -19.4144
rtoes -5.44902
lfemur -14.2802 3.74608 -8.31416
ltibia 78.0245
lfoot -1.82205 5.26775
ltoes -12.8122
310
root -1.95076 14.7312 -16.7655 12.0504 13.6361 -0.610918
lowerback 17.7098 0.870321 -3.11119
upperback -1.4552 0.779916 2.49057
thorax -11.6918 0.667825 4.31993
lowerneck -1.90852 -5.77518 -8.10488
upperneck -4.43622 -7.41755 8.32772
head -0.415981 -3.67001 4.10363
rclavicle -8.34896e-015 4.37326e-015
rhumerus 25.1856 6.23321 -59.4807
rradius 34.8826
rwrist 0.961218
rhand -6.97824 -28.3346
rfingers 7.12502
rthumb 18.8917 -57.4372
lclavicle -8.34896e-015 4.37326e-015
lhumerus 18.7853 -50.1988 73.4956
lradius 84.2083
lwrist 26.0567
lhand 3.18209 41.1557
lfingers 7.12502
lthumb 28.6345 68.9817
rfemur -60.6243 -25.2378 30.4536
rtibia 76.6413
rfoot -21.2957 -19.508
rtoes -6.16893
lfemur -17.4826 4.53386 -8.61366
ltibia 82.5648
lfoot -2.80874 4.83726
ltoes -13.1726
311
root -1.95285 14.737 -16.6465 11.6761 13.1617 -1.33221
lowerback 18.0376 0.919738 -2.65439
upperback -1.32992 0.964226 2.70997
thorax -11.7538 0.733423 4.25192
lowerneck -1.9776 -5.64456 -8.04245
upperneck -4.55712 -7.23228 8.35391
head -0.460774 -3.57695 4.10609
rclavicle -3.57812e-015 7.95139e-015
rhumerus 26.1765 6.54611 -59.8943
rradius 35.2435
rwrist 0.652037
rhand -9.16574 -28.4825
rfingers 7.12502
rthumb 16.7869 -57.7768
lclavicle -3.57812e-015 7.95139e-015
lhumerus 24.9262 -51.8276 69.8436
lradius 86.8937
lwrist 23.3237
lhand 4.12522 38.6464
lfingers 7.12502
lthumb 29.5352 66.3169
rfemur -59.5788 -24.764 30.9128
rtibia 76.4026
rfoot -21.6319 -19.6555
rtoes -6.88678
lfemur -20.751 5.46906 -8.97204
ltibia 86.8709
lfoot -3.50992 5.25327
ltoes -13.0221
312
root -1.9512 14.7416 -16.5255 11.2714 12.6654 -2.11784
lowerback 18.3881 0.963983 -2.10469
upperback -1.19958 1.16632 2.9393
thorax -11.8212 0.801726 4.13549
lowerneck -2.03293 -5.51836 -7.99461
upperneck -4.69816 -7.0531 8.36978
head -0.513835 -3.48691 4.10844
rclavicle 9.34288e-015 -1.66979e-014
rhumerus 27.2255 6.92979 -60.3241
rradius 35.6117
rwrist 0.307914
rhand -11.2911 -28.5579
rfingers 7.12502
rthumb 14.74 -58.0139
lclavicle 9.34288e-015 -1.66979e-014
lhumerus 31.7263 -53.1749 65.5877
lradius 89.6068
lwrist 20.3832
lhand 4.85305 35.9001
lfingers 7.12502
lthumb 30.2298 63.4455
rfemur -58.4684 -24.2306 31.3948
rtibia 76.1402
rfoot -21.9508 -19.8419
rtoes -7.55354
lfemur -24.0871 6.51355 -9.40997
ltibia 90.8924
lfoot -4.10655 6.3095
ltoes -12.5052
313
root -1.94574 14.7442 -16.4022 10.8505 12.1307 -2.94874
lowerback 18.7498 1.00789 -1.48802
upperback -1.06879 1.38771 3.17468
thorax -11.8923 0.874926 3.98057
lowerneck -2.08044 -5.39488 -7.95706
upperneck -4.84015 -6.87854 8.36121
head -0.568746 -3.39898 4.10424
rclavicle -1.11319e-014 -1.98785e-015
rhumerus 28.3256 7.37128 -60.7712
rradius 35.9835
rwrist -0.0347259
rhand -13.2563 -28.5249
rfingers 7.12502
rthumb 12.8462 -58.1096
lclavicle -1.11319e-014 -1.98785e-015
lhumerus 39.0639 -54.1532 60.8288
lradius 92.3209
lwrist 17.4234
lhand 5.30813 32.9669
lfingers 7.12502
lthumb 30.6638 60.4319
rfemur -57.3132 -23.6353 31.8885
rtibia 75.8663
rfoot -22.2498 -20.0662
rtoes -8.19958
lfemur -27.4966 7.62454 -9.96134
ltibia 94.5744
lfoot -4.76171 7.74574
ltoes -11.784
314
root -1.93633 14.7441 -16.2758 10.4324 11.5569 -3.7862
lowerback 19.1204 1.04749 -0.841033
upperback -0.946281 1.61446 3.40502
thorax -11.9745 0.948504 3.79991
lowerneck -2.13988 -5.27032 -7.91916
upperneck -4.9526 -6.7039 8.31892
head -0.613208 -3.31049 4.08686
rclavicle 3.35946e-014 2.26615e-014
rhumerus 29.4794 7.86622 -61.2532
rradius 36.3307
rwrist -0.312623
rhand -14.9863 -28.3663
rfingers 7.12502
rthumb 11.178 -58.0486
lclavicle 3.35946e-014 2.26615e-014
lhumerus 46.7306 -54.6818 55.7486
lradius 94.9895
lwrist 14.5774
lhand 5.44316 30.0363
lfingers 7.12502
lthumb 30.7926 57.4771
rfemur -56.1414 -23.0015 32.3662
rtibia 75.6028
rfoot -22.5115 -20.3377
rtoes -8.92884
lfemur -30.9843 8.71774 -10.6798
ltibia 97.8606
lfoot -5.54801 9.28208
ltoes -10.8866
315
root -1.92292 14.7409 -16.146 10.0438 10.9138 -4.58727
lowerback 19.4867 1.08873 -0.223024
upperback -0.841592 1.83989 3.61811
thorax -12.0714 1.02257 3.61605
lowerneck -2.22167 -5.13388 -7.87288
upperneck -5.01164 -6.51512 8.24335
head -0.638975 -3.21438 4.05435
rclavicle 1.86858e-014 1.59028e-015
rhumerus 30.6889 8.43795 -61.7767
rradius 36.6282
rwrist -0.456691
rhand -16.469 -28.0628
rfingers 7.12502
rthumb 9.74768 -57.8172
lclavicle 1.86858e-014 1.59028e-015
lhumerus 54.4658 -54.7218 50.5639
lradius 97.5719
lwrist 11.9361
lhand 5.40383 27.2414
lfingers 7.12502
lthumb 30.7551 54.6893
rfemur -54.9892 -22.3262 32.7925
rtibia 75.3729
rfoot -22.7735 -20.6172
rtoes -9.65569
lfemur -34.5527 9.72185 -11.6214
ltibia 100.692
lfoot -6.44868 10.6699
ltoes -9.95819
316
root -1.90521 14.7341 -16.0121 9.70575 10.1836 -5.31064
lowerback 19.8393 1.13488 0.320173
upperback -0.758973 2.05552 3.8006
thorax -12.1832 1.09535 3.44305
lowerneck -2.34492 -4.9803 -7.81275
upperneck -5.00031 -6.30444 8.14316
head -0.637538 -3.10663 4.00798
rclavicle 2.8625e-014 1.39149e-014
rhumerus 31.9465 9.11122 -62.3342
rradius 36.8681
rwrist -0.413865
rhand -17.6995 -27.6176
rfingers 7.12502
rthumb 8.56032 -57.4241
lclavicle 2.8625e-014 1.39149e-014
lhumerus 62.0162 -54.2724 45.4913
lradius 100.032
lwrist 9.66538
lhand 5.34717 24.6442
lfingers 7.12502
lthumb 30.7011 52.1022
rfemur -53.8882 -21.6183 33.1322
rtibia 75.1991
rfoot -23.0451 -20.8915
rtoes -10.4087
lfemur -38.193 10.5526 -12.8182
ltibia 103.022
lfoot -7.38058 11.7297
ltoes -9.17102
317
root -1.88293 14.7235 -15.8739 9.42585 9.35694 -5.91677
lowerback 20.171 1.19007 0.741995
upperback -0.695632 2.25345 3.9453
thorax -12.3043 1.16569 3.30197
lowerneck -2.50928 -4.80309 -7.74122
upperneck -4.92537 -6.06259 8.02793
head -0.611402 -2.98271 3.95225
rclavicle -2.76311e-014 -9.14409e-015
rhumerus 33.2543 9.91226 -62.9015
rradius 37.0361
rwrist -0.13663
rhand -18.687 -27.0748
rfingers 7.12502
rthumb 7.60726 -56.918
lclavicle -2.76311e-014 -9.14409e-015
lhumerus 69.1766 -53.3568 40.7057
lradius 102.339
lwrist 7.78096
lhand 5.31379 22.292
lfingers 7.12502
lthumb 30.6692 49.756
rfemur -52.8511 -20.897 33.3446
rtibia 75.0999
rfoot -23.3645 -21.1273
rtoes -11.1387
lfemur -41.8732 11.1261 -14.2735
ltibia 104.815
lfoot -8.25798 12.3752
ltoes -8.7213
318
root -1.85599 14.7094 -15.7303 9.19721 8.42276 -6.39412
lowerback 20.4836 1.25995 1.02541
upperback -0.648614 2.43521 4.05034
thorax -12.4339 1.23535 3.20003
lowerneck -2.70865 -4.60051 -7.66517
upperneck -4.79906 -5.78677 7.90949
head -0.565131 -2.84134 3.89351
rclavicle 2.8625e-014 -2.90226e-014
rhumerus 34.59 10.8692 -63.4427
rradius 37.1466
rwrist 0.393511
rhand -19.4282 -26.4974
rfingers 7.12502
rthumb 6.89176 -56.3652
lclavicle 2.8625e-014 -2.90226e-014
lhumerus 75.7738 -52.0281 36.3444
lradius 104.478
lwrist 6.37507
lhand 5.24678 20.2365
lfingers 7.12502
lthumb 30.6053 47.7125
rfemur -51.8683 -20.1703 33.4125
rtibia 75.0809
rfoot -23.7555 -21.3076
rtoes -11.8265
lfemur -45.5398 11.4056 -15.9253
ltibia 106.056
lfoot -9.06232 12.6017
ltoes -8.86079
319
root -1.82416 14.6916 -15.5814 9.00881 7.38928 -6.74815
lowerback 20.7839 1.34403 1.18714
upperback -0.611125 2.6029 4.11843
thorax -12.5688 1.30438 3.12985
lowerneck -2.94531 -4.37694 -7.59753
upperneck -4.64097 -5.48153 7.79402
head -0.503657 -2.68461 3.83699
rclavicle 8.64713e-015 -7.95139e-015
rhumerus 35.9528 12.0027 -63.897
rradius 37.214
rwrist 1.14057
rhand -19.9345 -25.9419
rfingers 7.12502
rthumb 6.40305 -55.8251
lclavicle 8.64713e-015 -7.95139e-015
lhumerus 81.6927 -50.34 32.4997
lradius 106.455
lwrist 5.44655
lhand 5.08108 18.6229
lfingers 7.12502
lthumb 30.4473 46.1283
rfemur -50.9329 -19.4614 33.34
rtibia 75.1402
rfoot -24.2317 -21.4177
rtoes -12.459
lfemur -49.1492 11.377 -17.672
ltibia 106.753
lfoot -9.79456 12.4447
ltoes -9.43783
